<svg id="my-svg" width="100%" xmlns="http://www.w3.org/2000/svg" xmlns:xlink="http://www.w3.org/1999/xlink" class="flowchart" style="max-width: 2302.98px; background-color: white;" viewBox="0 0 2302.984375 513.25" role="graphics-document document" aria-roledescription="flowchart"><style>#my-svg{font-family:ui-sans-serif,system-ui,-apple-system,BlinkMacSystemFont,'Segoe UI',Roboto,sans-serif;font-size:18px;fill:#ffffff;}@keyframes edge-animation-frame{from{stroke-dashoffset:0;}}@keyframes dash{to{stroke-dashoffset:0;}}#my-svg .edge-animation-slow{stroke-dasharray:9,5!important;stroke-dashoffset:900;animation:dash 50s linear infinite;stroke-linecap:round;}#my-svg .edge-animation-fast{stroke-dasharray:9,5!important;stroke-dashoffset:900;animation:dash 20s linear infinite;stroke-linecap:round;}#my-svg .error-icon{fill:#06b6d4;}#my-svg .error-text{fill:#f9492b;stroke:#f9492b;}#my-svg .edge-thickness-normal{stroke-width:1px;}#my-svg .edge-thickness-thick{stroke-width:3.5px;}#my-svg .edge-pattern-solid{stroke-dasharray:0;}#my-svg .edge-thickness-invisible{stroke-width:0;fill:none;}#my-svg .edge-pattern-dashed{stroke-dasharray:3;}#my-svg .edge-pattern-dotted{stroke-dasharray:2;}#my-svg .marker{fill:#64748b;stroke:#64748b;}#my-svg .marker.cross{stroke:#64748b;}#my-svg svg{font-family:ui-sans-serif,system-ui,-apple-system,BlinkMacSystemFont,'Segoe UI',Roboto,sans-serif;font-size:18px;}#my-svg p{margin:0;}#my-svg .label{font-family:ui-sans-serif,system-ui,-apple-system,BlinkMacSystemFont,'Segoe UI',Roboto,sans-serif;color:#1e293b;}#my-svg .cluster-label text{fill:#1e293b;}#my-svg .cluster-label span{color:#1e293b;}#my-svg .cluster-label span p{background-color:transparent;}#my-svg .label text,#my-svg span{fill:#1e293b;color:#1e293b;}#my-svg .node rect,#my-svg .node circle,#my-svg .node ellipse,#my-svg .node polygon,#my-svg .node path{fill:#dbeafe;stroke:#1e40af;stroke-width:1px;}#my-svg .rough-node .label text,#my-svg .node .label text,#my-svg .image-shape .label,#my-svg .icon-shape .label{text-anchor:middle;}#my-svg .node .katex path{fill:#000;stroke:#000;stroke-width:1px;}#my-svg .rough-node .label,#my-svg .node .label,#my-svg .image-shape .label,#my-svg .icon-shape .label{text-align:center;}#my-svg .node.clickable{cursor:pointer;}#my-svg .root .anchor path{fill:#64748b!important;stroke-width:0;stroke:#64748b;}#my-svg .arrowheadPath{fill:#000000;}#my-svg .edgePath .path{stroke:#64748b;stroke-width:2.0px;}#my-svg .flowchart-link{stroke:#64748b;fill:none;}#my-svg .edgeLabel{background-color:#ffffff;text-align:center;}#my-svg .edgeLabel p{background-color:#ffffff;}#my-svg .edgeLabel rect{opacity:0.5;background-color:#ffffff;fill:#ffffff;}#my-svg .labelBkg{background-color:rgba(255, 255, 255, 0.5);}#my-svg .cluster rect{fill:#f8fafc;stroke:#cbd5e1;stroke-width:1px;}#my-svg .cluster text{fill:#1e293b;}#my-svg .cluster span{color:#1e293b;}#my-svg div.mermaidTooltip{position:absolute;text-align:center;max-width:200px;padding:2px;font-family:ui-sans-serif,system-ui,-apple-system,BlinkMacSystemFont,'Segoe UI',Roboto,sans-serif;font-size:12px;background:#06b6d4;border:1px solid hsl(188.7378640777, 54.495412844%, 32.7450980392%);border-radius:2px;pointer-events:none;z-index:100;}#my-svg .flowchartTitleText{text-anchor:middle;font-size:18px;fill:#ffffff;}#my-svg rect.text{fill:none;stroke-width:0;}#my-svg .icon-shape,#my-svg .image-shape{background-color:#ffffff;text-align:center;}#my-svg .icon-shape p,#my-svg .image-shape p{background-color:#ffffff;padding:2px;}#my-svg .icon-shape rect,#my-svg .image-shape rect{opacity:0.5;background-color:#ffffff;fill:#ffffff;}#my-svg .label-icon{display:inline-block;height:1em;overflow:visible;vertical-align:-0.125em;}#my-svg .node .label-icon path{fill:currentColor;stroke:revert;stroke-width:revert;}#my-svg :root{--mermaid-font-family:"trebuchet ms",verdana,arial,sans-serif;}</style><g><marker id="my-svg_flowchart-pointEnd" class="marker flowchart" viewBox="0 0 10 10" refX="5" refY="5" markerUnits="userSpaceOnUse" markerWidth="8" markerHeight="8" orient="auto"><path d="M 0 0 L 10 5 L 0 10 z" class="arrowMarkerPath" style="stroke-width: 1; stroke-dasharray: 1, 0;"/></marker><marker id="my-svg_flowchart-pointStart" class="marker flowchart" viewBox="0 0 10 10" refX="4.5" refY="5" markerUnits="userSpaceOnUse" markerWidth="8" markerHeight="8" orient="auto"><path d="M 0 5 L 10 10 L 10 0 z" class="arrowMarkerPath" style="stroke-width: 1; stroke-dasharray: 1, 0;"/></marker><marker id="my-svg_flowchart-circleEnd" class="marker flowchart" viewBox="0 0 10 10" refX="11" refY="5" markerUnits="userSpaceOnUse" markerWidth="11" markerHeight="11" orient="auto"><circle cx="5" cy="5" r="5" class="arrowMarkerPath" style="stroke-width: 1; stroke-dasharray: 1, 0;"/></marker><marker id="my-svg_flowchart-circleStart" class="marker flowchart" viewBox="0 0 10 10" refX="-1" refY="5" markerUnits="userSpaceOnUse" markerWidth="11" markerHeight="11" orient="auto"><circle cx="5" cy="5" r="5" class="arrowMarkerPath" style="stroke-width: 1; stroke-dasharray: 1, 0;"/></marker><marker id="my-svg_flowchart-crossEnd" class="marker cross flowchart" viewBox="0 0 11 11" refX="12" refY="5.2" markerUnits="userSpaceOnUse" markerWidth="11" markerHeight="11" orient="auto"><path d="M 1,1 l 9,9 M 10,1 l -9,9" class="arrowMarkerPath" style="stroke-width: 2; stroke-dasharray: 1, 0;"/></marker><marker id="my-svg_flowchart-crossStart" class="marker cross flowchart" viewBox="0 0 11 11" refX="-1" refY="5.2" markerUnits="userSpaceOnUse" markerWidth="11" markerHeight="11" orient="auto"><path d="M 1,1 l 9,9 M 10,1 l -9,9" class="arrowMarkerPath" style="stroke-width: 2; stroke-dasharray: 1, 0;"/></marker><g class="root"><g class="clusters"/><g class="edgePaths"><path d="M451.578,55L463.237,55C474.896,55,498.214,55,520.918,59.703C543.622,64.406,565.713,73.811,576.759,78.514L587.804,83.217" id="L_A_B_0" class="edge-thickness-normal edge-pattern-solid edge-thickness-normal edge-pattern-solid flowchart-link" style=";" data-edge="true" data-et="edge" data-id="L_A_B_0" data-points="W3sieCI6NDUxLjU3ODEyNSwieSI6NTV9LHsieCI6NTIxLjUzMTI1LCJ5Ijo1NX0seyJ4Ijo1OTEuNDg0Mzc1LCJ5Ijo4NC43ODM3NzQ4MzQ0MzcwOH1d" marker-end="url(#my-svg_flowchart-pointEnd)"/><path d="M711.109,110.25L725.892,110.25C740.674,110.25,770.24,110.25,799.17,114.789C828.1,119.327,856.396,128.404,870.543,132.943L884.691,137.481" id="L_B_C_0" class="edge-thickness-normal edge-pattern-solid edge-thickness-normal edge-pattern-solid flowchart-link" style=";" data-edge="true" data-et="edge" data-id="L_B_C_0" data-points="W3sieCI6NzExLjEwOTM3NSwieSI6MTEwLjI1fSx7IngiOjc5OS44MDQ2ODc1LCJ5IjoxMTAuMjV9LHsieCI6ODg4LjUsInkiOjEzOC43MDI4OTg5MjUxNzU3fV0=" marker-end="url(#my-svg_flowchart-pointEnd)"/><path d="M1013.484,158.75L1028.406,158.75C1043.328,158.75,1073.172,158.75,1102.38,163.306C1131.589,167.861,1160.162,176.972,1174.449,181.528L1188.736,186.083" id="L_C_D_0" class="edge-thickness-normal edge-pattern-solid edge-thickness-normal edge-pattern-solid flowchart-link" style=";" data-edge="true" data-et="edge" data-id="L_C_D_0" data-points="W3sieCI6MTAxMy40ODQzNzUsInkiOjE1OC43NX0seyJ4IjoxMTAzLjAxNTYyNSwieSI6MTU4Ljc1fSx7IngiOjExOTIuNTQ2ODc1LCJ5IjoxODcuMjk4NDYxNjU2OTkzMTd9XQ==" marker-end="url(#my-svg_flowchart-pointEnd)"/><path d="M1317.688,207.25L1332.59,207.25C1347.492,207.25,1377.297,207.25,1406.462,211.442C1435.627,215.634,1464.152,224.018,1478.415,228.21L1492.678,232.402" id="L_D_E_0" class="edge-thickness-normal edge-pattern-solid edge-thickness-normal edge-pattern-solid flowchart-link" style=";" data-edge="true" data-et="edge" data-id="L_D_E_0" data-points="W3sieCI6MTMxNy42ODc1LCJ5IjoyMDcuMjV9LHsieCI6MTQwNy4xMDE1NjI1LCJ5IjoyMDcuMjV9LHsieCI6MTQ5Ni41MTU2MjUsInkiOjIzMy41Mjk4MjY3MjA5NTQ0NX1d" marker-end="url(#my-svg_flowchart-pointEnd)"/><path d="M1647.719,255.75L1662.604,255.75C1677.49,255.75,1707.26,255.75,1736.392,259.948C1765.523,264.145,1794.015,272.54,1808.261,276.738L1822.507,280.935" id="L_E_F_0" class="edge-thickness-normal edge-pattern-solid edge-thickness-normal edge-pattern-solid flowchart-link" style=";" data-edge="true" data-et="edge" data-id="L_E_F_0" data-points="W3sieCI6MTY0Ny43MTg3NSwieSI6MjU1Ljc1fSx7IngiOjE3MzcuMDMxMjUsInkiOjI1NS43NX0seyJ4IjoxODI2LjM0Mzc1LCJ5IjoyODIuMDY2MDA5MzAyNzY3MX1d" marker-end="url(#my-svg_flowchart-pointEnd)"/><path d="M1976.922,304.25L1991.691,304.25C2006.461,304.25,2036,304.25,2064.901,308.56C2093.803,312.87,2122.067,321.489,2136.198,325.799L2150.33,330.109" id="L_F_G_0" class="edge-thickness-normal edge-pattern-solid edge-thickness-normal edge-pattern-solid flowchart-link" style=";" data-edge="true" data-et="edge" data-id="L_F_G_0" data-points="W3sieCI6MTk3Ni45MjE4NzUsInkiOjMwNC4yNX0seyJ4IjoyMDY1LjUzOTA2MjUsInkiOjMwNC4yNX0seyJ4IjoyMTU0LjE1NjI1LCJ5IjozMzEuMjc1NzE3MjMzMjQ4Mn1d" marker-end="url(#my-svg_flowchart-pointEnd)"/><path d="M125.774,269L148.549,233.333C171.323,197.667,216.873,126.333,249.257,90.667C281.641,55,300.859,55,310.469,55L320.078,55" id="L_H_A_0" class="edge-thickness-normal edge-pattern-solid edge-thickness-normal edge-pattern-solid flowchart-link" style=";" data-edge="true" data-et="edge" data-id="L_H_A_0" data-points="W3sieCI6MTI1Ljc3Mzk1ODMzMzMzMzMzLCJ5IjoyNjl9LHsieCI6MjYyLjQyMTg3NSwieSI6NTV9LHsieCI6MzI0LjA3ODEyNSwieSI6NTV9XQ==" marker-end="url(#my-svg_flowchart-pointEnd)"/><path d="M143.027,269L162.926,251.75C182.826,234.5,222.624,200,263.424,182.75C304.224,165.5,346.026,165.5,389.211,165.5C432.396,165.5,476.964,165.5,510.293,160.797C543.622,156.094,565.713,146.689,576.759,141.986L587.804,137.283" id="L_H_B_0" class="edge-thickness-normal edge-pattern-solid edge-thickness-normal edge-pattern-solid flowchart-link" style=";" data-edge="true" data-et="edge" data-id="L_H_B_0" data-points="W3sieCI6MTQzLjAyNzQwMDc3NTU0NzQ1LCJ5IjoyNjl9LHsieCI6MjYyLjQyMTg3NSwieSI6MTY1LjV9LHsieCI6Mzg3LjgyODEyNSwieSI6MTY1LjV9LHsieCI6NTIxLjUzMTI1LCJ5IjoxNjUuNX0seyJ4Ijo1OTEuNDg0Mzc1LCJ5IjoxMzUuNzE2MjI1MTY1NTYyOTJ9XQ==" marker-end="url(#my-svg_flowchart-pointEnd)"/><path d="M178.171,269L192.213,262.625C206.255,256.25,234.338,243.5,269.281,237.125C304.224,230.75,346.026,230.75,389.211,230.75C432.396,230.75,476.964,230.75,520.875,230.75C564.786,230.75,608.042,230.75,654.421,230.75C700.799,230.75,750.302,230.75,789.234,223.997C828.166,217.243,856.527,203.737,870.708,196.984L884.889,190.23" id="L_H_C_0" class="edge-thickness-normal edge-pattern-solid edge-thickness-normal edge-pattern-solid flowchart-link" style=";" data-edge="true" data-et="edge" data-id="L_H_C_0" data-points="W3sieCI6MTc4LjE3MTA4NTU4MzYyMzcsInkiOjI2OX0seyJ4IjoyNjIuNDIxODc1LCJ5IjoyMzAuNzV9LHsieCI6Mzg3LjgyODEyNSwieSI6MjMwLjc1fSx7IngiOjUyMS41MzEyNSwieSI6MjMwLjc1fSx7IngiOjY1MS4yOTY4NzUsInkiOjIzMC43NX0seyJ4Ijo3OTkuODA0Njg3NSwieSI6MjMwLjc1fSx7IngiOjg4OC41LCJ5IjoxODguNTEwNjQ0ODk0NTg0NTR9XQ==" marker-end="url(#my-svg_flowchart-pointEnd)"/><path d="M200.766,298.536L211.042,298.113C221.318,297.691,241.87,296.845,273.047,296.423C304.224,296,346.026,296,389.211,296C432.396,296,476.964,296,520.875,296C564.786,296,608.042,296,654.421,296C700.799,296,750.302,296,800.251,296C850.201,296,900.596,296,951.132,296C1001.667,296,1052.341,296,1092.024,287.629C1131.708,279.258,1160.4,262.517,1174.746,254.146L1189.092,245.775" id="L_H_D_0" class="edge-thickness-normal edge-pattern-solid edge-thickness-normal edge-pattern-solid flowchart-link" style=";" data-edge="true" data-et="edge" data-id="L_H_D_0" data-points="W3sieCI6MjAwLjc2NTYyNSwieSI6Mjk4LjUzNTg2NDM1MzE1NjM0fSx7IngiOjI2Mi40MjE4NzUsInkiOjI5Nn0seyJ4IjozODcuODI4MTI1LCJ5IjoyOTZ9LHsieCI6NTIxLjUzMTI1LCJ5IjoyOTZ9LHsieCI6NjUxLjI5Njg3NSwieSI6Mjk2fSx7IngiOjc5OS44MDQ2ODc1LCJ5IjoyOTZ9LHsieCI6OTUwLjk5MjE4NzUsInkiOjI5Nn0seyJ4IjoxMTAzLjAxNTYyNSwieSI6Mjk2fSx7IngiOjExOTIuNTQ2ODc1LCJ5IjoyNDMuNzU5MjU4MzA4MDc5NX1d" marker-end="url(#my-svg_flowchart-pointEnd)"/><path d="M194.499,336L205.819,340.208C217.14,344.417,239.781,352.833,272.002,357.042C304.224,361.25,346.026,361.25,389.211,361.25C432.396,361.25,476.964,361.25,520.875,361.25C564.786,361.25,608.042,361.25,654.421,361.25C700.799,361.25,750.302,361.25,800.251,361.25C850.201,361.25,900.596,361.25,951.132,361.25C1001.667,361.25,1052.341,361.25,1103.029,361.25C1153.716,361.25,1204.417,361.25,1255.098,361.25C1305.779,361.25,1356.44,361.25,1396.459,351.859C1436.479,342.468,1465.856,323.686,1480.544,314.296L1495.233,304.905" id="L_H_E_0" class="edge-thickness-normal edge-pattern-solid edge-thickness-normal edge-pattern-solid flowchart-link" style=";" data-edge="true" data-et="edge" data-id="L_H_E_0" data-points="W3sieCI6MTk0LjQ5ODcwMzQ1NzQ0NjgyLCJ5IjozMzZ9LHsieCI6MjYyLjQyMTg3NSwieSI6MzYxLjI1fSx7IngiOjM4Ny44MjgxMjUsInkiOjM2MS4yNX0seyJ4Ijo1MjEuNTMxMjUsInkiOjM2MS4yNX0seyJ4Ijo2NTEuMjk2ODc1LCJ5IjozNjEuMjV9LHsieCI6Nzk5LjgwNDY4NzUsInkiOjM2MS4yNX0seyJ4Ijo5NTAuOTkyMTg3NSwieSI6MzYxLjI1fSx7IngiOjExMDMuMDE1NjI1LCJ5IjozNjEuMjV9LHsieCI6MTI1NS4xMTcxODc1LCJ5IjozNjEuMjV9LHsieCI6MTQwNy4xMDE1NjI1LCJ5IjozNjEuMjV9LHsieCI6MTQ5OC42MDMxMTc1OTQ3ODY3LCJ5IjozMDIuNzV9XQ==" marker-end="url(#my-svg_flowchart-pointEnd)"/><path d="M147.079,336L166.303,351.083C185.527,366.167,223.974,396.333,264.099,411.417C304.224,426.5,346.026,426.5,389.211,426.5C432.396,426.5,476.964,426.5,520.875,426.5C564.786,426.5,608.042,426.5,654.421,426.5C700.799,426.5,750.302,426.5,800.251,426.5C850.201,426.5,900.596,426.5,951.132,426.5C1001.667,426.5,1052.341,426.5,1103.029,426.5C1153.716,426.5,1204.417,426.5,1255.098,426.5C1305.779,426.5,1356.44,426.5,1409.273,426.5C1462.107,426.5,1517.112,426.5,1572.1,426.5C1627.089,426.5,1682.06,426.5,1725.897,414.356C1769.734,402.212,1802.437,377.923,1818.788,365.779L1835.139,353.635" id="L_H_F_0" class="edge-thickness-normal edge-pattern-solid edge-thickness-normal edge-pattern-solid flowchart-link" style=";" data-edge="true" data-et="edge" data-id="L_H_F_0" data-points="W3sieCI6MTQ3LjA3ODg0OTU0NjM3MDk4LCJ5IjozMzZ9LHsieCI6MjYyLjQyMTg3NSwieSI6NDI2LjV9LHsieCI6Mzg3LjgyODEyNSwieSI6NDI2LjV9LHsieCI6NTIxLjUzMTI1LCJ5Ijo0MjYuNX0seyJ4Ijo2NTEuMjk2ODc1LCJ5Ijo0MjYuNX0seyJ4Ijo3OTkuODA0Njg3NSwieSI6NDI2LjV9LHsieCI6OTUwLjk5MjE4NzUsInkiOjQyNi41fSx7IngiOjExMDMuMDE1NjI1LCJ5Ijo0MjYuNX0seyJ4IjoxMjU1LjExNzE4NzUsInkiOjQyNi41fSx7IngiOjE0MDcuMTAxNTYyNSwieSI6NDI2LjV9LHsieCI6MTU3Mi4xMTcxODc1LCJ5Ijo0MjYuNX0seyJ4IjoxNzM3LjAzMTI1LCJ5Ijo0MjYuNX0seyJ4IjoxODM4LjM1MDQxMjE5MzI1MTUsInkiOjM1MS4yNX1d" marker-end="url(#my-svg_flowchart-pointEnd)"/><path d="M132.358,336L154.035,361.958C175.713,387.917,219.067,439.833,261.646,465.792C304.224,491.75,346.026,491.75,389.211,491.75C432.396,491.75,476.964,491.75,520.875,491.75C564.786,491.75,608.042,491.75,654.421,491.75C700.799,491.75,750.302,491.75,800.251,491.75C850.201,491.75,900.596,491.75,951.132,491.75C1001.667,491.75,1052.341,491.75,1103.029,491.75C1153.716,491.75,1204.417,491.75,1255.098,491.75C1305.779,491.75,1356.44,491.75,1409.273,491.75C1462.107,491.75,1517.112,491.75,1572.1,491.75C1627.089,491.75,1682.06,491.75,1736.979,491.75C1791.898,491.75,1846.766,491.75,1901.517,491.75C1956.268,491.75,2010.904,491.75,2055.262,476.855C2099.621,461.961,2133.703,432.172,2150.744,417.277L2167.785,402.382" id="L_H_G_0" class="edge-thickness-normal edge-pattern-solid edge-thickness-normal edge-pattern-solid flowchart-link" style=";" data-edge="true" data-et="edge" data-id="L_H_G_0" data-points="W3sieCI6MTMyLjM1ODAyMzAzNTAwNjYsInkiOjMzNn0seyJ4IjoyNjIuNDIxODc1LCJ5Ijo0OTEuNzV9LHsieCI6Mzg3LjgyODEyNSwieSI6NDkxLjc1fSx7IngiOjUyMS41MzEyNSwieSI6NDkxLjc1fSx7IngiOjY1MS4yOTY4NzUsInkiOjQ5MS43NX0seyJ4Ijo3OTkuODA0Njg3NSwieSI6NDkxLjc1fSx7IngiOjk1MC45OTIxODc1LCJ5Ijo0OTEuNzV9LHsieCI6MTEwMy4wMTU2MjUsInkiOjQ5MS43NX0seyJ4IjoxMjU1LjExNzE4NzUsInkiOjQ5MS43NX0seyJ4IjoxNDA3LjEwMTU2MjUsInkiOjQ5MS43NX0seyJ4IjoxNTcyLjExNzE4NzUsInkiOjQ5MS43NX0seyJ4IjoxNzM3LjAzMTI1LCJ5Ijo0OTEuNzV9LHsieCI6MTkwMS42MzI4MTI1LCJ5Ijo0OTEuNzV9LHsieCI6MjA2NS41MzkwNjI1LCJ5Ijo0OTEuNzV9LHsieCI6MjE3MC43OTcxNTYwMjUxOCwieSI6Mzk5Ljc1fV0=" marker-end="url(#my-svg_flowchart-pointEnd)"/></g><g class="edgeLabels"><g class="edgeLabel" transform="translate(521.53125, 55)"><g class="label" data-id="L_A_B_0" transform="translate(-29.953125, -27)"><foreignObject width="59.90625" height="54"><div xmlns="http://www.w3.org/1999/xhtml" class="labelBkg" style="display: table-cell; white-space: nowrap; line-height: 1.5; max-width: 200px; text-align: center;"><span class="edgeLabel"><p>Smaller<br />Faster</p></span></div></foreignObject></g></g><g class="edgeLabel" transform="translate(799.8046875, 110.25)"><g class="label" data-id="L_B_C_0" transform="translate(-48.6953125, -13.5)"><foreignObject width="97.390625" height="27"><div xmlns="http://www.w3.org/1999/xhtml" class="labelBkg" style="display: table-cell; white-space: nowrap; line-height: 1.5; max-width: 200px; text-align: center;"><span class="edgeLabel"><p>97% Quality</p></span></div></foreignObject></g></g><g class="edgeLabel" transform="translate(1103.015625, 158.75)"><g class="label" data-id="L_C_D_0" transform="translate(-49.53125, -13.5)"><foreignObject width="99.0625" height="27"><div xmlns="http://www.w3.org/1999/xhtml" class="labelBkg" style="display: table-cell; white-space: nowrap; line-height: 1.5; max-width: 200px; text-align: center;"><span class="edgeLabel"><p>94% Quality</p></span></div></foreignObject></g></g><g class="edgeLabel" transform="translate(1407.1015625, 207.25)"><g class="label" data-id="L_D_E_0" transform="translate(-49.4140625, -13.5)"><foreignObject width="98.828125" height="27"><div xmlns="http://www.w3.org/1999/xhtml" class="labelBkg" style="display: table-cell; white-space: nowrap; line-height: 1.5; max-width: 200px; text-align: center;"><span class="edgeLabel"><p>90% Quality</p></span></div></foreignObject></g></g><g class="edgeLabel" transform="translate(1737.03125, 255.75)"><g class="label" data-id="L_E_F_0" transform="translate(-49.3125, -13.5)"><foreignObject width="98.625" height="27"><div xmlns="http://www.w3.org/1999/xhtml" class="labelBkg" style="display: table-cell; white-space: nowrap; line-height: 1.5; max-width: 200px; text-align: center;"><span class="edgeLabel"><p>85% Quality</p></span></div></foreignObject></g></g><g class="edgeLabel" transform="translate(2065.5390625, 304.25)"><g class="label" data-id="L_F_G_0" transform="translate(-48.6171875, -13.5)"><foreignObject width="97.234375" height="27"><div xmlns="http://www.w3.org/1999/xhtml" class="labelBkg" style="display: table-cell; white-space: nowrap; line-height: 1.5; max-width: 200px; text-align: center;"><span class="edgeLabel"><p>75% Quality</p></span></div></foreignObject></g></g><g class="edgeLabel" transform="translate(262.421875, 55)"><g class="label" data-id="L_H_A_0" transform="translate(-21.65625, -13.5)"><foreignObject width="43.3125" height="27"><div xmlns="http://www.w3.org/1999/xhtml" class="labelBkg" style="display: table-cell; white-space: nowrap; line-height: 1.5; max-width: 200px; text-align: center;"><span class="edgeLabel"><p>14GB</p></span></div></foreignObject></g></g><g class="edgeLabel" transform="translate(387.828125, 165.5)"><g class="label" data-id="L_H_B_0" transform="translate(-20.0546875, -13.5)"><foreignObject width="40.109375" height="27"><div xmlns="http://www.w3.org/1999/xhtml" class="labelBkg" style="display: table-cell; white-space: nowrap; line-height: 1.5; max-width: 200px; text-align: center;"><span class="edgeLabel"><p>11GB</p></span></div></foreignObject></g></g><g class="edgeLabel" transform="translate(521.53125, 230.75)"><g class="label" data-id="L_H_C_0" transform="translate(-24.8515625, -13.5)"><foreignObject width="49.703125" height="27"><div xmlns="http://www.w3.org/1999/xhtml" class="labelBkg" style="display: table-cell; white-space: nowrap; line-height: 1.5; max-width: 200px; text-align: center;"><span class="edgeLabel"><p>8.5GB</p></span></div></foreignObject></g></g><g class="edgeLabel" transform="translate(651.296875, 296)"><g class="label" data-id="L_H_D_0" transform="translate(-16.96875, -13.5)"><foreignObject width="33.9375" height="27"><div xmlns="http://www.w3.org/1999/xhtml" class="labelBkg" style="display: table-cell; white-space: nowrap; line-height: 1.5; max-width: 200px; text-align: center;"><span class="edgeLabel"><p>7GB</p></span></div></foreignObject></g></g><g class="edgeLabel" transform="translate(799.8046875, 361.25)"><g class="label" data-id="L_H_E_0" transform="translate(-24.75, -13.5)"><foreignObject width="49.5" height="27"><div xmlns="http://www.w3.org/1999/xhtml" class="labelBkg" style="display: table-cell; white-space: nowrap; line-height: 1.5; max-width: 200px; text-align: center;"><span class="edgeLabel"><p>3.5GB</p></span></div></foreignObject></g></g><g class="edgeLabel" transform="translate(950.9921875, 426.5)"><g class="label" data-id="L_H_F_0" transform="translate(-24.8125, -13.5)"><foreignObject width="49.625" height="27"><div xmlns="http://www.w3.org/1999/xhtml" class="labelBkg" style="display: table-cell; white-space: nowrap; line-height: 1.5; max-width: 200px; text-align: center;"><span class="edgeLabel"><p>2.6GB</p></span></div></foreignObject></g></g><g class="edgeLabel" transform="translate(1103.015625, 491.75)"><g class="label" data-id="L_H_G_0" transform="translate(-23.4609375, -13.5)"><foreignObject width="46.921875" height="27"><div xmlns="http://www.w3.org/1999/xhtml" class="labelBkg" style="display: table-cell; white-space: nowrap; line-height: 1.5; max-width: 200px; text-align: center;"><span class="edgeLabel"><p>1.3GB</p></span></div></foreignObject></g></g></g><g class="nodes"><g class="node default" id="flowchart-A-0" transform="translate(387.828125, 55)"><rect class="basic label-container" style="fill:#ef4444 !important" x="-63.75" y="-47" width="127.5" height="94"/><g class="label" style="" transform="translate(-23.75, -27)"><rect/><foreignObject width="47.5" height="54"><div xmlns="http://www.w3.org/1999/xhtml" style="display: table-cell; white-space: nowrap; line-height: 1.5; max-width: 200px; text-align: center;"><span class="nodeLabel"><p>FP16<br />16-bit</p></span></div></foreignObject></g></g><g class="node default" id="flowchart-B-1" transform="translate(651.296875, 110.25)"><rect class="basic label-container" style="" x="-59.8125" y="-47" width="119.625" height="94"/><g class="label" style="" transform="translate(-19.8125, -27)"><rect/><foreignObject width="39.625" height="54"><div xmlns="http://www.w3.org/1999/xhtml" style="display: table-cell; white-space: nowrap; line-height: 1.5; max-width: 200px; text-align: center;"><span class="nodeLabel"><p>Q8<br />8-bit</p></span></div></foreignObject></g></g><g class="node default" id="flowchart-C-3" transform="translate(950.9921875, 158.75)"><rect class="basic label-container" style="" x="-62.4921875" y="-47" width="124.984375" height="94"/><g class="label" style="" transform="translate(-22.4921875, -27)"><rect/><foreignObject width="44.984375" height="54"><div xmlns="http://www.w3.org/1999/xhtml" style="display: table-cell; white-space: nowrap; line-height: 1.5; max-width: 200px; text-align: center;"><span class="nodeLabel"><p>Q6_K<br />6-bit</p></span></div></foreignObject></g></g><g class="node default" id="flowchart-D-5" transform="translate(1255.1171875, 207.25)"><rect class="basic label-container" style="" x="-62.5703125" y="-47" width="125.140625" height="94"/><g class="label" style="" transform="translate(-22.5703125, -27)"><rect/><foreignObject width="45.140625" height="54"><div xmlns="http://www.w3.org/1999/xhtml" style="display: table-cell; white-space: nowrap; line-height: 1.5; max-width: 200px; text-align: center;"><span class="nodeLabel"><p>Q5_K<br />5-bit</p></span></div></foreignObject></g></g><g class="node default" id="flowchart-E-7" transform="translate(1572.1171875, 255.75)"><rect class="basic label-container" style="fill:#f59e0b !important" x="-75.6015625" y="-47" width="151.203125" height="94"/><g class="label" style="" transform="translate(-35.6015625, -27)"><rect/><foreignObject width="71.203125" height="54"><div xmlns="http://www.w3.org/1999/xhtml" style="display: table-cell; white-space: nowrap; line-height: 1.5; max-width: 200px; text-align: center;"><span class="nodeLabel"><p>Q4_K_M<br />4-bit</p></span></div></foreignObject></g></g><g class="node default" id="flowchart-F-9" transform="translate(1901.6328125, 304.25)"><rect class="basic label-container" style="" x="-75.2890625" y="-47" width="150.578125" height="94"/><g class="label" style="" transform="translate(-35.2890625, -27)"><rect/><foreignObject width="70.578125" height="54"><div xmlns="http://www.w3.org/1999/xhtml" style="display: table-cell; white-space: nowrap; line-height: 1.5; max-width: 200px; text-align: center;"><span class="nodeLabel"><p>Q3_K_M<br />3-bit</p></span></div></foreignObject></g></g><g class="node default" id="flowchart-G-11" transform="translate(2224.5703125, 352.75)"><rect class="basic label-container" style="fill:#10b981 !important" x="-70.4140625" y="-47" width="140.828125" height="94"/><g class="label" style="" transform="translate(-30.4140625, -27)"><rect/><foreignObject width="60.828125" height="54"><div xmlns="http://www.w3.org/1999/xhtml" style="display: table-cell; white-space: nowrap; line-height: 1.5; max-width: 200px; text-align: center;"><span class="nodeLabel"><p>IQ2_XS<br />2-bit</p></span></div></foreignObject></g></g><g class="node default" id="flowchart-H-12" transform="translate(104.3828125, 302.5)"><rect class="basic label-container" style="" x="-96.3828125" y="-33.5" width="192.765625" height="67"/><g class="label" style="" transform="translate(-56.3828125, -13.5)"><rect/><foreignObject width="112.765625" height="27"><div xmlns="http://www.w3.org/1999/xhtml" style="display: table-cell; white-space: nowrap; line-height: 1.5; max-width: 200px; text-align: center;"><span class="nodeLabel"><p>Memory Used</p></span></div></foreignObject></g></g></g></g></g></svg>